# xmcd CD database file
#
# Track frame offsets:
#	150
#	21417
#	42448
#	60381
#	78596
#	99439
#	118513
#	145099
#	158475
#	180082
#	196008
#	214693
#	241422
#
# Disc length: 3376 seconds
#
# Revision: 0
# Processed by: cddbd v1.5.1PL0 Copyright (c) Steve Scherf et al.
# Submitted via: CDex 1.51
#
DISCID=9e0d2e0d
DTITLE=John Hammond - Wicked grin
DYEAR=1900
DGENRE=Blues
TTITLE0=2:19
TTITLE1=Heartattack and vine
TTITLE2=Clap hands
TTITLE3='Til the money runs out
TTITLE4=16 Shells from a thirty-ought six
TTITLE5=Buzz Fledder John
TTITLE6=Get behind the mule
TTITLE7=Shore leave
TTITLE8=Fannin street
TTITLE9=Jockey full of bourbon
TTITLE10=Big black Mariah
TTITLE11=Murder in the red barn
TTITLE12=I know i've been changed
EXTD=
EXTT0=
EXTT1=
EXTT2=
EXTT3=
EXTT4=
EXTT5=
EXTT6=
EXTT7=
EXTT8=
EXTT9=
EXTT10=
EXTT11=
EXTT12=
PLAYORDER=
